<svg version="1.1" xmlns="http://www.w3.org/2000/svg" viewBox="0 0 1367.714538574219 2305.7031397259457" width="1367.714538574219" height="2305.7031397259457">
  <!-- svg-source:excalidraw -->
  
  <defs>
    <style class="style-fonts">
      @font-face {
        font-family: "Virgil";
        src: url("https://excalidraw.com/Virgil.woff2");
      }
      @font-face {
        font-family: "Cascadia";
        src: url("https://excalidraw.com/Cascadia.woff2");
      }
      @font-face {
        font-family: "Assistant";
        src: url("https://excalidraw.com/Assistant-Regular.woff2");
      }
    </style>
    <clipPath id="nSKOvCOlhWcUkTXUhwcHc">
            <rect transform="translate(42.71444266183039 56.846055724130395) rotate(0 626.857190813337 350.85715702601834)" width="1253.714381626674" height="701.7143140520367">
          </rect>
        </clipPath>
  </defs>
  <rect x="0" y="0" width="1367.714538574219" height="2305.7031397259457" fill="#ffffff"></rect><g clip-path="url(#nSKOvCOlhWcUkTXUhwcHc)"><g transform="translate(132.343017578125 98.84603174603328) rotate(0 73.935546875 11.5)"><text x="0" y="0" font-family="Helvetica, Segoe UI Emoji" font-size="20px" fill="#1e1e1e" text-anchor="start" style="white-space: pre;" direction="ltr" dominant-baseline="text-before-edge">Initial application</text></g></g><g clip-path="url(#nSKOvCOlhWcUkTXUhwcHc)"><g stroke-linecap="round" transform="translate(103.54301452636719 129.24599512493953) rotate(0 99.20000457763672 18.799987792968764)"><path d="M9.4 0 C69.63 0.1, 132.86 -0.63, 189 0 M9.4 0 C79.53 -1.13, 150.8 -0.71, 189 0 M189 0 C195.32 -1.94, 197.94 2.23, 198.4 9.4 M189 0 C195.13 -0.08, 197.28 4.33, 198.4 9.4 M198.4 9.4 C200.21 15.2, 199.48 17.59, 198.4 28.2 M198.4 9.4 C199.07 17.78, 198.14 24.61, 198.4 28.2 M198.4 28.2 C200.39 32.47, 195.29 37.54, 189 37.6 M198.4 28.2 C198.82 33.13, 194.4 37.22, 189 37.6 M189 37.6 C141.55 36.84, 90.35 37.08, 9.4 37.6 M189 37.6 C152.98 36.46, 115.9 35.03, 9.4 37.6 M9.4 37.6 C4.85 35.72, 0.49 33.82, 0 28.2 M9.4 37.6 C2.79 39.44, 0.19 35.67, 0 28.2 M0 28.2 C-1.31 24.6, -1.68 20.12, 0 9.4 M0 28.2 C-0.02 22.71, -0.67 17.23, 0 9.4 M0 9.4 C-1.81 3.56, 3.67 1.21, 9.4 0 M0 9.4 C1.8 4.94, 1.98 1.77, 9.4 0" stroke="#1971c2" stroke-width="2" fill="none"></path></g></g><g clip-path="url(#nSKOvCOlhWcUkTXUhwcHc)"><g transform="translate(125.14300537109375 134.84603174603328) rotate(0 77.275390625 11.5)"><text x="77.275390625" y="0" font-family="Helvetica, Segoe UI Emoji" font-size="20px" fill="#1e1e1e" text-anchor="middle" style="white-space: pre;" direction="ltr" dominant-baseline="text-before-edge">Candidate details</text></g></g><g clip-path="url(#nSKOvCOlhWcUkTXUhwcHc)"><g stroke-linecap="round"><g transform="translate(200.67435141962414 167.04607447064265) rotate(0 0.5634687356348991 27.899993896484375)"><path d="M-0.29 0.81 C-0.33 10.14, 0.42 46.31, 0.81 55.48 M1.75 0.19 C1.43 9.73, -0.3 47.35, -0.31 56.85" stroke="#1971c2" stroke-width="2" fill="none"></path></g><g transform="translate(200.67435141962414 167.04607447064265) rotate(0 0.5634687356348991 27.899993896484375)"><path d="M-9.15 30.39 C-4.47 40.14, -2.92 52.41, -0.31 56.85 M-9.15 30.39 C-6.26 38.41, -4.88 46.27, -0.31 56.85" stroke="#1971c2" stroke-width="2" fill="none"></path></g><g transform="translate(200.67435141962414 167.04607447064265) rotate(0 0.5634687356348991 27.899993896484375)"><path d="M9.93 30.89 C7.22 40.4, 1.37 52.48, -0.31 56.85 M9.93 30.89 C7.01 38.74, 2.56 46.45, -0.31 56.85" stroke="#1971c2" stroke-width="2" fill="none"></path></g></g><mask></mask></g><g clip-path="url(#nSKOvCOlhWcUkTXUhwcHc)"><g transform="translate(155.66546630859375 238.0460134354864) rotate(0 49.4775390625 34.5)"><text x="49.4775390625" y="0" font-family="Helvetica, Segoe UI Emoji" font-size="20px" fill="#1e1e1e" text-anchor="middle" style="white-space: pre;" direction="ltr" dominant-baseline="text-before-edge">Contact </text><text x="49.4775390625" y="23" font-family="Helvetica, Segoe UI Emoji" font-size="20px" fill="#1e1e1e" text-anchor="middle" style="white-space: pre;" direction="ltr" dominant-baseline="text-before-edge">is created</text><text x="49.4775390625" y="46" font-family="Helvetica, Segoe UI Emoji" font-size="20px" fill="#1e1e1e" text-anchor="middle" style="white-space: pre;" direction="ltr" dominant-baseline="text-before-edge">in HubSpot</text></g></g><g clip-path="url(#nSKOvCOlhWcUkTXUhwcHc)"><g stroke-linecap="round" transform="translate(98.74301147460938 224.44602259075984) rotate(0 100.40000915527344 45.99999237060547)"><path d="M23 0 C79.22 1.83, 133.73 0.64, 177.8 0 M23 0 C63.02 0.97, 101.53 1.73, 177.8 0 M177.8 0 C193.65 -1.83, 199.4 6.21, 200.8 23 M177.8 0 C191.2 -0.79, 202.13 7.18, 200.8 23 M200.8 23 C201.63 34.33, 199.33 44.82, 200.8 69 M200.8 23 C200.97 34.89, 200.63 48.13, 200.8 69 M200.8 69 C198.82 85.36, 192.78 93.97, 177.8 92 M200.8 69 C202.86 84.06, 191.17 93.04, 177.8 92 M177.8 92 C119.6 92.34, 57.24 91.44, 23 92 M177.8 92 C116.32 92.01, 54.83 93.36, 23 92 M23 92 C7.21 93.66, -1.86 85.57, 0 69 M23 92 C9.39 91.23, 0.15 82.67, 0 69 M0 69 C-0.7 59.84, -0.46 50.39, 0 23 M0 69 C0.36 54.74, -0.8 38.89, 0 23 M0 23 C-0.61 7.39, 6.25 1.32, 23 0 M0 23 C1.83 9.83, 9.84 -1.32, 23 0" stroke="#1e1e1e" stroke-width="2" fill="none"></path></g></g><g clip-path="url(#nSKOvCOlhWcUkTXUhwcHc)"><g stroke-linecap="round"><g transform="translate(303.5429992675781 270.67535012229223) rotate(0 22.300003051757812 0.3028236607890733)"><path d="M0.39 -0.34 C7.84 -0.15, 37.07 0.73, 44.39 0.94 M-0.07 0.67 C7.32 0.72, 36.53 0.26, 43.85 0.14" stroke="#1e1e1e" stroke-width="2" fill="none"></path></g><g transform="translate(303.5429992675781 270.67535012229223) rotate(0 22.300003051757812 0.3028236607890733)"><path d="M23.02 8.1 C27.41 5.73, 33.64 3.72, 43.85 0.14 M23.02 8.1 C29.94 5.17, 37.39 2.39, 43.85 0.14" stroke="#1e1e1e" stroke-width="2" fill="none"></path></g><g transform="translate(303.5429992675781 270.67535012229223) rotate(0 22.300003051757812 0.3028236607890733)"><path d="M22.78 -7.16 C27.21 -5.86, 33.49 -4.21, 43.85 0.14 M22.78 -7.16 C29.81 -4.74, 37.35 -2.17, 43.85 0.14" stroke="#1e1e1e" stroke-width="2" fill="none"></path></g></g><mask></mask></g><g clip-path="url(#nSKOvCOlhWcUkTXUhwcHc)"><g stroke-linecap="round" transform="translate(349.14300537109375 161.04602869427546) rotate(0 180 106.79999542236328)"><path d="M32 0 C123.17 0.08, 213.49 -1.29, 328 0 M32 0 C143.71 -2, 254.67 -1.7, 328 0 M328 0 C347.84 -1.66, 359.72 9.27, 360 32 M328 0 C348.28 1.19, 360.66 11.6, 360 32 M360 32 C360.45 82.29, 361.9 130.91, 360 181.6 M360 32 C360.34 82.03, 360.96 132.66, 360 181.6 M360 181.6 C361.63 203.57, 350.55 213.77, 328 213.6 M360 181.6 C361.07 204.25, 347.63 212.11, 328 213.6 M328 213.6 C235.95 212.24, 143.35 214, 32 213.6 M328 213.6 C231.5 211.69, 136.24 212.47, 32 213.6 M32 213.6 C11.87 212.98, -0.52 202.17, 0 181.6 M32 213.6 C11.29 214.81, -1.65 203.22, 0 181.6 M0 181.6 C1.35 147.68, -1.4 118, 0 32 M0 181.6 C-1.64 145.33, -1.04 108.22, 0 32 M0 32 C0.88 12.58, 9.98 -0.02, 32 0 M0 32 C-0.67 9.74, 11.22 1.8, 32 0" stroke="#1e1e1e" stroke-width="2" fill="none"></path></g></g><g clip-path="url(#nSKOvCOlhWcUkTXUhwcHc)"><g transform="translate(382.48931884765625 175.4460378495489) rotate(0 145.0537109375 23)"><text x="145.0537109375" y="0" font-family="Helvetica, Segoe UI Emoji" font-size="20px" fill="#1e1e1e" text-anchor="middle" style="white-space: pre;" direction="ltr" dominant-baseline="text-before-edge">Name, DoB, Email, Ph, Address,</text><text x="145.0537109375" y="23" font-family="Helvetica, Segoe UI Emoji" font-size="20px" fill="#1e1e1e" text-anchor="middle" style="white-space: pre;" direction="ltr" dominant-baseline="text-before-edge">Pronouns</text></g></g><g transform="translate(562.1227874755859 1202.0460821000372) rotate(0 120.6201171875 46)"><text x="120.6201171875" y="0" font-family="Helvetica, Segoe UI Emoji" font-size="20px" fill="#f08c00" text-anchor="middle" style="white-space: pre;" direction="ltr" dominant-baseline="text-before-edge">Missing properties:</text><text x="120.6201171875" y="23" font-family="Helvetica, Segoe UI Emoji" font-size="20px" fill="#f08c00" text-anchor="middle" style="white-space: pre;" direction="ltr" dominant-baseline="text-before-edge">consumers_pronouns</text><text x="120.6201171875" y="46" font-family="Helvetica, Segoe UI Emoji" font-size="20px" fill="#f08c00" text-anchor="middle" style="white-space: pre;" direction="ltr" dominant-baseline="text-before-edge">consumers_booking_code</text><text x="120.6201171875" y="69" font-family="Helvetica, Segoe UI Emoji" font-size="20px" fill="#f08c00" text-anchor="middle" style="white-space: pre;" direction="ltr" dominant-baseline="text-before-edge">providers_address_country</text></g><g clip-path="url(#nSKOvCOlhWcUkTXUhwcHc)"><g transform="translate(372.51312255859375 265.04601343548643) rotate(0 155.6298828125 57.5)"><text x="155.6298828125" y="0" font-family="Helvetica, Segoe UI Emoji" font-size="20px" fill="#1e1e1e" text-anchor="middle" style="white-space: pre;" direction="ltr" dominant-baseline="text-before-edge">Where? </text><text x="155.6298828125" y="23" font-family="Helvetica, Segoe UI Emoji" font-size="20px" fill="#1e1e1e" text-anchor="middle" style="white-space: pre;" direction="ltr" dominant-baseline="text-before-edge">operational DB like Excell / Airtable</text><text x="155.6298828125" y="46" font-family="Helvetica, Segoe UI Emoji" font-size="20px" fill="#1e1e1e" text-anchor="middle" style="white-space: pre;" direction="ltr" dominant-baseline="text-before-edge">or Hubspot / Setmore</text><text x="155.6298828125" y="69" font-family="Helvetica, Segoe UI Emoji" font-size="20px" fill="#1e1e1e" text-anchor="middle" style="white-space: pre;" direction="ltr" dominant-baseline="text-before-edge">or DBMS</text><text x="155.6298828125" y="92" font-family="Helvetica, Segoe UI Emoji" font-size="20px" fill="#1e1e1e" text-anchor="middle" style="white-space: pre;" direction="ltr" dominant-baseline="text-before-edge"></text></g></g><g clip-path="url(#nSKOvCOlhWcUkTXUhwcHc)"><g transform="translate(470.0487060546875 131.44602259075984) rotate(0 56.6943359375 11.5)"><text x="56.6943359375" y="0" font-family="Helvetica, Segoe UI Emoji" font-size="20px" fill="#1e1e1e" text-anchor="middle" style="white-space: pre;" direction="ltr" dominant-baseline="text-before-edge">Contact card</text></g></g><g clip-path="url(#nSKOvCOlhWcUkTXUhwcHc)"><g stroke-linecap="round"><g transform="translate(708.343017578125 266.8460317460333) rotate(0 35.60003662109375 -0.79998779296875)"><path d="M-0.38 -0.44 C11.28 -0.67, 58.26 -0.61, 70.19 -0.79 M1.63 -1.71 C13.63 -2.33, 60.9 -2.75, 72.37 -2.49" stroke="#1e1e1e" stroke-width="2" fill="none"></path></g></g><mask></mask></g><g clip-path="url(#nSKOvCOlhWcUkTXUhwcHc)"><g stroke-linecap="round" transform="translate(842.7431030273438 101.24605616009578) rotate(0 159.5999755859375 65.5999984741211)"><path d="M32 0 C127.52 -1.05, 224.5 -0.75, 287.2 0 M32 0 C94.81 1.63, 157.42 0.36, 287.2 0 M287.2 0 C309.02 -0.93, 320.03 9.24, 319.2 32 M287.2 0 C308.81 0.32, 316.94 10.22, 319.2 32 M319.2 32 C319.58 58.5, 319.02 83.8, 319.2 99.2 M319.2 32 C318.32 47.9, 318.01 64.46, 319.2 99.2 M319.2 99.2 C317.54 121.57, 306.98 129.38, 287.2 131.2 M319.2 99.2 C317.7 121.1, 309.46 133.25, 287.2 131.2 M287.2 131.2 C191.66 128.45, 98.91 131.01, 32 131.2 M287.2 131.2 C187.45 131.4, 89.38 131.58, 32 131.2 M32 131.2 C9.87 131.71, -0.02 121.31, 0 99.2 M32 131.2 C10.69 132.04, 2.04 119.64, 0 99.2 M0 99.2 C2.08 78.92, 1.26 62.52, 0 32 M0 99.2 C-0.12 82.87, -0.28 64.43, 0 32 M0 32 C-0.55 10.71, 12.24 1.69, 32 0 M0 32 C-0.5 11.39, 11.71 1.69, 32 0" stroke="#1e1e1e" stroke-width="2" fill="none"></path></g></g><g clip-path="url(#nSKOvCOlhWcUkTXUhwcHc)"><g stroke-linecap="round" transform="translate(849.1431274414062 308.44603784954893) rotate(0 159.5999755859375 59.600006103515625)"><path d="M29.8 0 C86.07 -1.44, 143.13 -0.42, 289.4 0 M29.8 0 C113.45 -0.02, 197.82 0.18, 289.4 0 M289.4 0 C309.74 0.05, 317.96 9.27, 319.2 29.8 M289.4 0 C308.02 -0.2, 320.17 8.41, 319.2 29.8 M319.2 29.8 C320.35 45.76, 317 63.07, 319.2 89.4 M319.2 29.8 C319.32 52.82, 318.6 76.26, 319.2 89.4 M319.2 89.4 C320.46 110.98, 310.98 117.81, 289.4 119.2 M319.2 89.4 C317.94 110.48, 307.04 118.77, 289.4 119.2 M289.4 119.2 C191.63 121.78, 90.46 120.86, 29.8 119.2 M289.4 119.2 C207.63 118.43, 127.62 117.66, 29.8 119.2 M29.8 119.2 C10.87 117.26, -0.41 107.82, 0 89.4 M29.8 119.2 C9.61 119.2, 0.61 110.06, 0 89.4 M0 89.4 C2.06 77.79, 0.72 62.85, 0 29.8 M0 89.4 C-0.35 75.63, 0.15 63.31, 0 29.8 M0 29.8 C-0.68 10.4, 10.35 1.32, 29.8 0 M0 29.8 C-1 11.12, 9.21 2.19, 29.8 0" stroke="#1e1e1e" stroke-width="2" fill="none"></path></g></g><g clip-path="url(#nSKOvCOlhWcUkTXUhwcHc)"><g transform="translate(783.7186529976981 248.89890252276282) rotate(0 25.65300750732422 13.273567663393038)"><text x="25.65300750732422" y="0" font-family="Helvetica, Segoe UI Emoji" font-size="23.084465501553126px" fill="#1e1e1e" text-anchor="middle" style="white-space: pre;" direction="ltr" dominant-baseline="text-before-edge">Sync</text></g></g><g clip-path="url(#nSKOvCOlhWcUkTXUhwcHc)"><g transform="translate(927.2438354492188 359.6460347977911) rotate(0 86.69921875 11.5)"><text x="86.69921875" y="0" font-family="Helvetica, Segoe UI Emoji" font-size="20px" fill="#1e1e1e" text-anchor="middle" style="white-space: pre;" direction="ltr" dominant-baseline="text-before-edge">Setmore Consumer</text></g></g><g clip-path="url(#nSKOvCOlhWcUkTXUhwcHc)"><g transform="translate(959.0270385742188 157.2460103837286) rotate(0 38.916015625 11.5)"><text x="38.916015625" y="0" font-family="Helvetica, Segoe UI Emoji" font-size="20px" fill="#1e1e1e" text-anchor="middle" style="white-space: pre;" direction="ltr" dominant-baseline="text-before-edge">HubSpot</text></g></g><g clip-path="url(#nSKOvCOlhWcUkTXUhwcHc)"><g stroke-linecap="round"><g transform="translate(839.5430297851562 165.4460378495489) rotate(0 -16.800018310546875 0.7999954223632812)"><path d="M-0.11 0.52 C-5.74 0.68, -28.34 1.16, -33.92 1.29 M-0.83 0.31 C-6.27 0.51, -27.33 1.59, -32.85 1.84" stroke="#1e1e1e" stroke-width="2" fill="none"></path></g></g><mask></mask></g><g clip-path="url(#nSKOvCOlhWcUkTXUhwcHc)"><g stroke-linecap="round"><g transform="translate(805.9429931640625 166.24602564251765) rotate(0 0 38.40000915527344)"><path d="M-0.11 -0.84 C0.03 11.93, 0.99 62.68, 1.19 75.64 M-1.63 1.34 C-1.57 14.29, 0.45 63.74, 0.87 76.57" stroke="#1e1e1e" stroke-width="2" fill="none"></path></g></g><mask></mask></g><g clip-path="url(#nSKOvCOlhWcUkTXUhwcHc)"><g stroke-linecap="round"><g transform="translate(804.343017578125 287.8460317460333) rotate(0 0.399993896484375 32)"><path d="M1.06 -0.37 C0.98 10.32, 0.77 54.08, 0.53 64.76 M0.15 -1.62 C-0.19 8.69, -0.85 51.96, -0.55 63.04" stroke="#1e1e1e" stroke-width="2" fill="none"></path></g></g><mask></mask></g><g clip-path="url(#nSKOvCOlhWcUkTXUhwcHc)"><g stroke-linecap="round"><g transform="translate(805.1430053710938 351.8460317460333) rotate(0 20.79998779296875 0)"><path d="M0.05 0.36 C7.12 0.47, 35.17 0.32, 42.12 0.31 M-0.59 0.07 C6.48 0.05, 34.94 -0.38, 41.95 -0.5" stroke="#1e1e1e" stroke-width="2" fill="none"></path></g></g><mask></mask></g><g clip-path="url(#nSKOvCOlhWcUkTXUhwcHc)"><g stroke-linecap="round"><g transform="translate(1162.7429809570312 162.2460409013067) rotate(0 28.4000244140625 0.7999954223632812)"><path d="M0.51 -0.72 C10.28 -0.31, 48.39 2.24, 57.89 2.64 M-0.68 1.52 C9.1 1.59, 47.89 0.81, 57.51 1.07" stroke="#1e1e1e" stroke-width="2" fill="none"></path></g></g><mask></mask></g><g clip-path="url(#nSKOvCOlhWcUkTXUhwcHc)"><g stroke-linecap="round"><g transform="translate(1219.5430297851562 163.84603174603328) rotate(0 1.20001220703125 96)"><path d="M-0.44 0.14 C-0.07 32.11, 0.91 159.72, 1.37 191.71 M1.52 -0.83 C2.34 31.33, 3.54 160.71, 3.54 193.09" stroke="#1e1e1e" stroke-width="2" fill="none"></path></g></g><mask></mask></g><g clip-path="url(#nSKOvCOlhWcUkTXUhwcHc)"><g stroke-linecap="round"><g transform="translate(1221.1430053710938 357.4460988847052) rotate(0 -26.39996337890625 0)"><path d="M0.78 0.97 C-7.79 1.09, -43.12 -0.4, -52.21 -0.39 M-0.27 0.43 C-8.87 0.82, -44.34 1.15, -52.85 0.95" stroke="#1e1e1e" stroke-width="2" fill="none"></path></g></g><mask></mask></g><g clip-path="url(#nSKOvCOlhWcUkTXUhwcHc)"><g stroke-linecap="round"><g transform="translate(1168.3430786132812 357.4460988847052) rotate(0 0.39996337890625 0.39996337890625)"><path d="M0.24 0.01 C0.39 0.12, 0.64 0.81, 0.68 0.93 M-0.06 -0.29 C0.04 -0.31, 0.13 0.15, 0.33 0.38" stroke="#1e1e1e" stroke-width="2" fill="none"></path></g></g><mask></mask></g><g clip-path="url(#nSKOvCOlhWcUkTXUhwcHc)"><g stroke-linecap="round"><g transform="translate(1016.3430786132812 425.44606836712705) rotate(0 0.79998779296875 23.5999755859375)"><path d="M0.45 -0.33 C0.72 7.66, 1.41 39.75, 1.56 47.66 M0.02 0.69 C0.22 8.56, 0.97 39.1, 1.11 46.93" stroke="#1e1e1e" stroke-width="2" fill="none"></path></g></g><mask></mask></g><g clip-path="url(#nSKOvCOlhWcUkTXUhwcHc)"><g stroke-linecap="round"><g transform="translate(1017.9430541992188 468.64601953900205) rotate(0 -173.2571585518973 -0.22856794084816556)"><path d="M-0.27 -0.99 C-58.18 -0.98, -289.03 -0.43, -346.76 -0.4 M1.78 1.1 C-56.36 1.36, -289.62 1.3, -347.84 1.16" stroke="#1e1e1e" stroke-width="2" fill="none"></path></g></g><mask></mask></g><g clip-path="url(#nSKOvCOlhWcUkTXUhwcHc)"><g stroke-linecap="round"><g transform="translate(673.314453125 467.04604395306455) rotate(0 1.4407292215352072 46.0763999325892)"><path d="M0.82 -1.09 C1.15 14.34, 1.81 76.1, 2 91.77 M-0.21 0.96 C0.49 16.63, 3.48 78.1, 4.24 93.1" stroke="#1e1e1e" stroke-width="2" fill="none"></path></g><g transform="translate(673.314453125 467.04604395306455) rotate(0 1.4407292215352072 46.0763999325892)"><path d="M-7.4 65.45 C-5.86 72.31, -1.15 80.63, 4.24 93.1 M-7.4 65.45 C-3.33 74.96, 0.88 84.83, 4.24 93.1" stroke="#1e1e1e" stroke-width="2" fill="none"></path></g><g transform="translate(673.314453125 467.04604395306455) rotate(0 1.4407292215352072 46.0763999325892)"><path d="M13.1 64.44 C8.4 71.74, 6.87 80.38, 4.24 93.1 M13.1 64.44 C9.67 74.18, 6.39 84.42, 4.24 93.1" stroke="#1e1e1e" stroke-width="2" fill="none"></path></g></g><mask></mask></g><g clip-path="url(#nSKOvCOlhWcUkTXUhwcHc)"><g stroke-linecap="round"><g transform="translate(198.74301147460938 316.44603784954893) rotate(0 1.600006103515625 38.399993896484375)"><path d="M-1.16 0.33 C-0.43 13.41, 2.39 64.6, 3.3 77.32 M0.44 -0.54 C1.11 12.28, 1.79 62.39, 2.41 75.47" stroke="#1e1e1e" stroke-width="2" fill="none"></path></g><g transform="translate(198.74301147460938 316.44603784954893) rotate(0 1.600006103515625 38.399993896484375)"><path d="M-8.66 47.59 C-6.03 53.78, -3.37 61.43, 2.41 75.47 M-8.66 47.59 C-5.46 55.91, -2.3 63.3, 2.41 75.47" stroke="#1e1e1e" stroke-width="2" fill="none"></path></g><g transform="translate(198.74301147460938 316.44603784954893) rotate(0 1.600006103515625 38.399993896484375)"><path d="M11.85 46.99 C10.13 53.11, 8.43 60.89, 2.41 75.47 M11.85 46.99 C9.14 55.34, 6.4 62.91, 2.41 75.47" stroke="#1e1e1e" stroke-width="2" fill="none"></path></g></g><mask></mask></g><g clip-path="url(#nSKOvCOlhWcUkTXUhwcHc)"><g stroke-linecap="round" transform="translate(99.54302978515625 394.04604395306455) rotate(0 104 36)"><path d="M18 0 C55.79 -1.07, 93.97 1.11, 190 0 M18 0 C54.99 -1.65, 92.69 -0.16, 190 0 M190 0 C202.47 -1.86, 206.42 4.34, 208 18 M190 0 C201.78 -0.43, 207.03 5.23, 208 18 M208 18 C208.31 25.34, 208.06 37.51, 208 54 M208 18 C207.04 30, 207.5 41.83, 208 54 M208 54 C208.22 64.8, 202.68 72.47, 190 72 M208 54 C206.7 66.91, 202.19 70.33, 190 72 M190 72 C150.6 71.25, 112.32 73.01, 18 72 M190 72 C135.22 72.22, 82.18 71.93, 18 72 M18 72 C7.87 73.38, 1.41 67.63, 0 54 M18 72 C7.27 71.34, 1.51 67, 0 54 M0 54 C0.43 44.65, -1.24 34.88, 0 18 M0 54 C0.74 44.31, 0 35.62, 0 18 M0 18 C-0.9 6.01, 4.52 1.57, 18 0 M0 18 C2.3 7.74, 7.17 -1, 18 0" stroke="#1e1e1e" stroke-width="2" fill="none"></path></g></g><g clip-path="url(#nSKOvCOlhWcUkTXUhwcHc)"><g transform="translate(118.737548828125 408.44603784954893) rotate(0 85.60546875 23)"><text x="85.60546875" y="0" font-family="Helvetica, Segoe UI Emoji" font-size="20px" fill="#1e1e1e" text-anchor="middle" style="white-space: pre;" direction="ltr" dominant-baseline="text-before-edge">practice challenges</text><text x="85.60546875" y="23" font-family="Helvetica, Segoe UI Emoji" font-size="20px" fill="#1e1e1e" text-anchor="middle" style="white-space: pre;" direction="ltr" dominant-baseline="text-before-edge">track progress</text></g></g><g clip-path="url(#nSKOvCOlhWcUkTXUhwcHc)"><g stroke-linecap="round"><g transform="translate(204.80966983761743 464.4460988847052) rotate(0 1.46485125086042 36.23554019814162)"><path d="M1.11 0.52 C1.55 12.65, 3 59.82, 3.37 71.64 M0.23 -0.25 C0.49 12.11, 2.23 60.66, 2.65 72.74" stroke="#1e1e1e" stroke-width="2" fill="none"></path></g><g transform="translate(204.80966983761743 464.4460988847052) rotate(0 1.46485125086042 36.23554019814162)"><path d="M-8.59 44.93 C-3.93 55.57, -2.14 65.48, 2.65 72.74 M-8.59 44.93 C-7.04 51.8, -3.48 57.52, 2.65 72.74" stroke="#1e1e1e" stroke-width="2" fill="none"></path></g><g transform="translate(204.80966983761743 464.4460988847052) rotate(0 1.46485125086042 36.23554019814162)"><path d="M11.92 44.21 C9.19 55.3, 3.6 65.47, 2.65 72.74 M11.92 44.21 C9.03 51.32, 8.16 57.2, 2.65 72.74" stroke="#1e1e1e" stroke-width="2" fill="none"></path></g></g><mask></mask></g><g clip-path="url(#nSKOvCOlhWcUkTXUhwcHc)"><g stroke-linecap="round" transform="translate(340.54302978515625 597.2460561600958) rotate(0 83.60000610351562 21.199996948242188)"><path d="M10.6 0 C57.45 -0.06, 107.68 -2.01, 156.6 0 M10.6 0 C68.33 -0.39, 124.21 0.04, 156.6 0 M156.6 0 C165.33 -1.23, 167.82 2.79, 167.2 10.6 M156.6 0 C164.11 2.26, 167.36 2.61, 167.2 10.6 M167.2 10.6 C169.04 19.53, 168.89 29.16, 167.2 31.8 M167.2 10.6 C167.4 16.64, 167.98 20.36, 167.2 31.8 M167.2 31.8 C168.11 37.25, 163.38 44.39, 156.6 42.4 M167.2 31.8 C167.41 37.39, 162.05 42.46, 156.6 42.4 M156.6 42.4 C125.95 41.65, 90.99 44.02, 10.6 42.4 M156.6 42.4 C100.11 41.62, 42.95 42.69, 10.6 42.4 M10.6 42.4 C4.11 41.96, -0.34 37.06, 0 31.8 M10.6 42.4 C1.38 44.01, 1.72 40.87, 0 31.8 M0 31.8 C-0.41 27.63, 0.57 21.48, 0 10.6 M0 31.8 C0.46 25.79, 0.48 19.93, 0 10.6 M0 10.6 C1.95 5.23, 1.75 0.59, 10.6 0 M0 10.6 C2.09 4.37, 3.13 1.83, 10.6 0" stroke="#1e1e1e" stroke-width="2" fill="none"></path></g></g><g clip-path="url(#nSKOvCOlhWcUkTXUhwcHc)"><g transform="translate(346.4725341796875 604.446068367127) rotate(0 77.2705078125 11.5)"><text x="77.2705078125" y="0" font-family="Helvetica, Segoe UI Emoji" font-size="20px" fill="#1e1e1e" text-anchor="middle" style="white-space: pre;" direction="ltr" dominant-baseline="text-before-edge">Appointment Link</text></g></g><g clip-path="url(#nSKOvCOlhWcUkTXUhwcHc)"><g stroke-linecap="round"><g transform="translate(278.9430236816406 619.6460500565802) rotate(0 29.599990844726562 0)"><path d="M-1.05 -1.03 C8.9 -1.39, 48.83 -0.99, 58.84 -0.95 M0.6 1.04 C10.44 1.31, 48.12 0.24, 57.71 0.09" stroke="#1e1e1e" stroke-width="2" fill="none"></path></g><g transform="translate(278.9430236816406 619.6460500565802) rotate(0 29.599990844726562 0)"><path d="M30.12 10.82 C34.53 8.04, 40.91 5.87, 57.71 0.09 M30.12 10.82 C37.49 8.93, 42.54 6.23, 57.71 0.09" stroke="#1e1e1e" stroke-width="2" fill="none"></path></g><g transform="translate(278.9430236816406 619.6460500565802) rotate(0 29.599990844726562 0)"><path d="M29.67 -9.42 C34.38 -7.62, 40.86 -5.22, 57.71 0.09 M29.67 -9.42 C36.98 -6.58, 42.14 -4.55, 57.71 0.09" stroke="#1e1e1e" stroke-width="2" fill="none"></path></g></g><mask></mask></g><g clip-path="url(#nSKOvCOlhWcUkTXUhwcHc)"><g stroke-linecap="round"><g transform="translate(507.7430419921875 617.0780640347064) rotate(0 22.626492336398485 0.4543010219716166)"><path d="M0.37 0.02 C7.79 0.21, 37.62 0.91, 45.03 1.12 M-0.11 -0.44 C7.18 -0.42, 36.82 0.13, 44.49 0.26" stroke="#1e1e1e" stroke-width="2" fill="none"></path></g><g transform="translate(507.7430419921875 617.0780640347064) rotate(0 22.626492336398485 0.4543010219716166)"><path d="M23.09 7.62 C31.57 4.25, 40.34 0.97, 44.49 0.26 M23.09 7.62 C31.03 5.27, 38.82 2.52, 44.49 0.26" stroke="#1e1e1e" stroke-width="2" fill="none"></path></g><g transform="translate(507.7430419921875 617.0780640347064) rotate(0 22.626492336398485 0.4543010219716166)"><path d="M23.36 -7.86 C31.73 -5.13, 40.4 -2.3, 44.49 0.26 M23.36 -7.86 C31.18 -4.63, 38.88 -1.81, 44.49 0.26" stroke="#1e1e1e" stroke-width="2" fill="none"></path></g></g><mask></mask></g><g clip-path="url(#nSKOvCOlhWcUkTXUhwcHc)"><g stroke-linecap="round" transform="translate(553.5715942382812 564.7690830289846) rotate(0 134.4571140834263 56.067051890611424)"><path d="M28.03 0 C108.57 -0.63, 187.78 1.17, 240.88 0 M28.03 0 C81.28 -0.72, 133.69 -0.63, 240.88 0 M240.88 0 C258.75 1.46, 270.02 8.83, 268.91 28.03 M240.88 0 C260.66 -2.04, 267.66 7.41, 268.91 28.03 M268.91 28.03 C268.22 46.71, 267.31 63.7, 268.91 84.1 M268.91 28.03 C268.36 50.45, 268.65 71.19, 268.91 84.1 M268.91 84.1 C269.11 102.4, 259.25 110.17, 240.88 112.13 M268.91 84.1 C268.86 101.27, 261.17 110.56, 240.88 112.13 M240.88 112.13 C187 110.92, 132.09 112.35, 28.03 112.13 M240.88 112.13 C174.29 112.22, 106.66 112.43, 28.03 112.13 M28.03 112.13 C10.22 112.7, 0.48 103.32, 0 84.1 M28.03 112.13 C8.53 110.07, -0.25 101.99, 0 84.1 M0 84.1 C0.55 63.57, 1.01 44.54, 0 28.03 M0 84.1 C-0.71 67.33, -0.36 50.11, 0 28.03 M0 28.03 C-1.17 8.69, 8.81 -1.16, 28.03 0 M0 28.03 C2.21 8.08, 10.06 2.28, 28.03 0" stroke="#1e1e1e" stroke-width="2" fill="none"></path></g></g><g clip-path="url(#nSKOvCOlhWcUkTXUhwcHc)"><g transform="translate(565.1031620595331 570.9987400584773) rotate(0 127.59780883789062 44.77577377015996)"><text x="127.59780883789062" y="0" font-family="Helvetica, Segoe UI Emoji" font-size="25.956970301542007px" fill="#1e1e1e" text-anchor="middle" style="white-space: pre;" direction="ltr" dominant-baseline="text-before-edge">Entry Challenge </text><text x="127.59780883789062" y="29.850515846773305" font-family="Helvetica, Segoe UI Emoji" font-size="25.956970301542007px" fill="#1e1e1e" text-anchor="middle" style="white-space: pre;" direction="ltr" dominant-baseline="text-before-edge">is booked via</text><text x="127.59780883789062" y="59.70103169354661" font-family="Helvetica, Segoe UI Emoji" font-size="25.956970301542007px" fill="#1e1e1e" text-anchor="middle" style="white-space: pre;" direction="ltr" dominant-baseline="text-before-edge">Setmore appointment </text></g></g><g clip-path="url(#nSKOvCOlhWcUkTXUhwcHc)"><g stroke-linecap="round" transform="translate(134.74301147460938 539.646019539002) rotate(0 73.19999694824219 79)"><path d="M92.5 20 C101.03 30.05, 107.11 36.36, 127.9 60 M92.5 20 C104.5 33.38, 115.35 44.77, 127.9 60 M127.9 60 C146.05 79.11, 146.51 80.36, 127.9 100 M127.9 60 C145.06 80.69, 147.98 79.32, 127.9 100 M127.9 100 C120.35 107.88, 111.36 116.85, 92.5 138 M127.9 100 C114.08 116.21, 99.45 131.22, 92.5 138 M92.5 138 C73.96 158.71, 72.58 159.71, 55.5 138 M92.5 138 C76.24 159.17, 73.93 158.65, 55.5 138 M55.5 138 C41.38 123.79, 26.57 107.84, 18.5 100 M55.5 138 C46.23 127.38, 36.46 118.66, 18.5 100 M18.5 100 C-1.69 79.31, 0.35 80.32, 18.5 60 M18.5 100 C-1.66 81.8, 1.17 79.39, 18.5 60 M18.5 60 C30.94 45.8, 40.41 32.57, 55.5 20 M18.5 60 C26.35 50.58, 35.42 41.76, 55.5 20 M55.5 20 C75.69 -1.52, 75.89 -0.54, 92.5 20 M55.5 20 C73.14 -1.6, 76.21 -1.21, 92.5 20" stroke="#1e1e1e" stroke-width="2" fill="none"></path></g></g><g clip-path="url(#nSKOvCOlhWcUkTXUhwcHc)"><g transform="translate(185.05004119873047 584.146019539002) rotate(0 22.79296875 34.5)"><text x="22.79296875" y="0" font-family="Helvetica, Segoe UI Emoji" font-size="20px" fill="#1e1e1e" text-anchor="middle" style="white-space: pre;" direction="ltr" dominant-baseline="text-before-edge">60% </text><text x="22.79296875" y="23" font-family="Helvetica, Segoe UI Emoji" font-size="20px" fill="#1e1e1e" text-anchor="middle" style="white-space: pre;" direction="ltr" dominant-baseline="text-before-edge">or</text><text x="22.79296875" y="46" font-family="Helvetica, Segoe UI Emoji" font-size="20px" fill="#1e1e1e" text-anchor="middle" style="white-space: pre;" direction="ltr" dominant-baseline="text-before-edge">more</text></g></g><g clip-path="url(#nSKOvCOlhWcUkTXUhwcHc)"><g stroke-linecap="round"><g transform="translate(675.8572736467634 673.9889237661226) rotate(0 1.714259556361526 39.42855834960932)"><path d="M0.99 -0.67 C1.3 12.56, 2.64 65.7, 2.87 78.91 M0.05 1.6 C0.06 15.07, 0.85 67.45, 1.63 80.48" stroke="#1e1e1e" stroke-width="2" fill="none"></path></g></g><mask></mask></g><g transform="translate(42.71444266183039 36.346055724130395) rotate(0 22.791908264160156 8.75)"><text x="0" y="0" font-family="Assistant, Segoe UI Emoji" font-size="14px" fill="#999999" text-anchor="start" style="white-space: pre;" direction="ltr" dominant-baseline="text-before-edge">Frame 1</text></g><rect transform="translate(42.71444266183039 56.846055724130395) rotate(0 626.857190813337 350.85715702601834)" width="1253.714381626674px" height="701.7143140520367px" rx="8" ry="8" fill="none" stroke="#bbb" stroke-width="2"></rect><g stroke-linecap="round"><g transform="translate(680.2626439905105 760.8460491846494) rotate(0 0.08098553929988839 29.28567267266152)"><path d="M0.22 0.25 C0.24 10.28, 0.32 49.22, 0.43 58.96 M-1.13 -0.66 C-1.27 9.1, -0.64 46.93, -0.37 57.04" stroke="#1e1e1e" stroke-width="2" fill="none"></path></g><g transform="translate(680.2626439905105 760.8460491846494) rotate(0 0.08098553929988839 29.28567267266152)"><path d="M-10.95 29.73 C-7.35 39.06, -3.68 48.71, -0.37 57.04 M-10.95 29.73 C-7.94 38.03, -4.89 45.89, -0.37 57.04" stroke="#1e1e1e" stroke-width="2" fill="none"></path></g><g transform="translate(680.2626439905105 760.8460491846494) rotate(0 0.08098553929988839 29.28567267266152)"><path d="M9.08 29.32 C6.15 38.82, 3.29 48.6, -0.37 57.04 M9.08 29.32 C5.93 37.87, 2.81 45.85, -0.37 57.04" stroke="#1e1e1e" stroke-width="2" fill="none"></path></g></g><mask></mask><g stroke-linecap="round" transform="translate(437.2859497070309 825.7032792348728) rotate(0 242.57122979375976 49.71424647739968)"><path d="M320 2.62 C341.5 3.3, 361.84 7.23, 380.27 9.75 C398.71 12.28, 416.21 14.23, 430.62 17.79 C445.02 21.34, 457.97 26.5, 466.7 31.08 C475.42 35.67, 480.52 40.81, 482.96 45.29 C485.39 49.78, 485.19 53.65, 481.3 57.99 C477.42 62.32, 469.81 67.2, 459.64 71.3 C449.48 75.41, 435.86 78.97, 420.32 82.62 C404.78 86.27, 386.15 90.49, 366.4 93.18 C346.65 95.87, 323.97 97.57, 301.83 98.75 C279.7 99.92, 256.29 100.64, 233.58 100.23 C210.87 99.82, 187.05 98, 165.59 96.26 C144.13 94.53, 123.55 92.4, 104.81 89.8 C86.07 87.2, 67.7 84.28, 53.17 80.64 C38.64 77, 26.11 72.27, 17.62 67.96 C9.12 63.66, 4.43 59.38, 2.22 54.82 C0.01 50.26, 0.55 45.16, 4.37 40.62 C8.18 36.09, 14.91 31.82, 25.12 27.61 C35.32 23.39, 49.85 18.74, 65.62 15.32 C81.39 11.9, 100.21 9.22, 119.72 7.07 C139.22 4.92, 160.63 3.65, 182.64 2.43 C204.66 1.21, 227.2 -0.43, 251.79 -0.26 C276.39 -0.1, 315.89 2.56, 330.21 3.4 C344.54 4.25, 339.3 3.88, 337.76 4.8 M319.28 3.41 C341.02 3.96, 360.32 5.27, 378.76 7.75 C397.19 10.23, 415.3 14.59, 429.89 18.29 C444.49 21.99, 457.47 25.42, 466.34 29.96 C475.21 34.5, 480.72 40.8, 483.13 45.52 C485.53 50.25, 484.59 54.07, 480.78 58.31 C476.96 62.55, 470.24 66.65, 460.23 70.96 C450.21 75.28, 436.34 80.77, 420.68 84.21 C405.03 87.64, 385.79 89.25, 366.32 91.56 C346.84 93.88, 325.89 96.67, 303.84 98.1 C281.8 99.54, 256.82 100.17, 234.03 100.16 C211.24 100.14, 188.58 99.61, 167.11 98.01 C145.63 96.41, 123.93 93.23, 105.18 90.55 C86.42 87.88, 68.72 85.34, 54.59 81.95 C40.47 78.56, 29.37 74.91, 20.42 70.23 C11.48 65.56, 3.8 58.69, 0.92 53.9 C-1.95 49.11, -0.97 45.78, 3.19 41.49 C7.34 37.2, 15.89 32.2, 25.84 28.16 C35.8 24.12, 47.76 20.97, 62.93 17.24 C78.11 13.51, 97.1 8.62, 116.88 5.78 C136.66 2.94, 159.47 1.36, 181.61 0.19 C203.75 -0.98, 227.2 -1.44, 249.72 -1.24 C272.24 -1.05, 305.7 0.36, 316.76 1.34 C327.82 2.32, 317.03 3.81, 316.08 4.65" stroke="#1e1e1e" stroke-width="2" fill="none"></path></g><g transform="translate(525.8387615036924 855.4889608513754) rotate(0 158.30380249023432 17.249988654562685)"><text x="158.30380249023438" y="0" font-family="Helvetica, Segoe UI Emoji" font-size="29.999980268804656px" fill="#1e1e1e" text-anchor="middle" style="white-space: pre;" direction="ltr" dominant-baseline="text-before-edge">Automation TRIGGERS</text></g><g stroke-linecap="round" transform="translate(555.4286847795761 1000.2746293325288) rotate(0 126.2857491629465 79)"><path d="M158.75 20 C177.08 35.09, 198.46 45.4, 220.82 60 M158.75 20 C183.02 35.06, 207.56 52.55, 220.82 60 M220.82 60 C253.23 78.69, 253.52 81.5, 220.82 100 M220.82 60 C250.34 78.49, 253.29 80.37, 220.82 100 M220.82 100 C200.01 110.74, 179.59 125.97, 158.75 138 M220.82 100 C205.4 109.45, 188.02 119.51, 158.75 138 M158.75 138 C128.01 158.65, 128.73 156.34, 95.25 138 M158.75 138 C125.42 158.06, 128.44 157.52, 95.25 138 M95.25 138 C75.22 125.33, 55.99 115.48, 31.75 100 M95.25 138 C76.05 126.26, 59.16 115.36, 31.75 100 M31.75 100 C-1.38 81.1, 0.83 79.19, 31.75 60 M31.75 100 C-1.89 80.8, -0.46 79.17, 31.75 60 M31.75 60 C50.15 50.47, 67.85 36.5, 95.25 20 M31.75 60 C46.89 51.34, 60.66 41.04, 95.25 20 M95.25 20 C127.26 1.53, 125.1 -0.35, 158.75 20 M95.25 20 C125.69 -0.36, 126.58 -0.81, 158.75 20" stroke="#1e1e1e" stroke-width="2" fill="none"></path></g><g transform="translate(635.4387468610494 1044.7746293325288) rotate(0 46.1328125 34.5)"><text x="46.1328125" y="0" font-family="Helvetica, Segoe UI Emoji" font-size="20px" fill="#1e1e1e" text-anchor="middle" style="white-space: pre;" direction="ltr" dominant-baseline="text-before-edge">Check for </text><text x="46.1328125" y="23" font-family="Helvetica, Segoe UI Emoji" font-size="20px" fill="#1e1e1e" text-anchor="middle" style="white-space: pre;" direction="ltr" dominant-baseline="text-before-edge">data </text><text x="46.1328125" y="46" font-family="Helvetica, Segoe UI Emoji" font-size="20px" fill="#1e1e1e" text-anchor="middle" style="white-space: pre;" direction="ltr" dominant-baseline="text-before-edge">availability</text></g><g stroke-linecap="round"><g transform="translate(797.7144513811382 1077.9888627309665) rotate(0 188.5714721679688 -0.5714198521205844)"><path d="M-0.46 0.66 C62.67 0.2, 315.3 -1.44, 378.32 -1.93 M1.5 -0.03 C64.61 -0.43, 315.38 -0.56, 377.99 -0.81" stroke="#1e1e1e" stroke-width="2" fill="none"></path></g></g><mask></mask><g stroke-linecap="round"><g transform="translate(1177.1430751255582 1079.1318550230985) rotate(0 1.1427525111605519 53.14280918666293)"><path d="M-0.94 -0.46 C-0.93 17.16, 0.54 87.51, 1.1 105.28 M0.76 -1.75 C1.03 16.03, 3.03 88.1, 3.18 106.29" stroke="#1e1e1e" stroke-width="2" fill="none"></path></g></g><mask></mask><g stroke-linecap="round" transform="translate(997.714538574219 1184.8461581760002) rotate(0 180 39.99997820172996)"><path d="M20 0 C140.12 0.1, 260.13 2.19, 340 0 M20 0 C87.05 2.14, 154.76 1.86, 340 0 M340 0 C354.87 1.66, 360.44 4.92, 360 20 M340 0 C354.47 -1.13, 358.18 5.46, 360 20 M360 20 C359.26 33.76, 358.98 49.3, 360 60 M360 20 C360.64 28.84, 360.83 36.8, 360 60 M360 60 C359.22 71.9, 351.65 79.87, 340 80 M360 60 C362.21 73.88, 355.5 78.94, 340 80 M340 80 C247.76 79.14, 156.44 81.25, 20 80 M340 80 C238.33 78.22, 137.22 78.49, 20 80 M20 80 C8.13 81.89, -0.15 75.21, 0 60 M20 80 C7.8 78.11, 1.67 72.88, 0 60 M0 60 C0.39 46.92, -1.67 37.36, 0 20 M0 60 C0.07 48.46, 0.77 37.22, 0 20 M0 20 C0.44 7.02, 7.86 -1.14, 20 0 M0 20 C-0.38 8.67, 8.18 0.83, 20 0" stroke="#1e1e1e" stroke-width="2" fill="none"></path></g><g transform="translate(1028.197937011719 1213.3461363777303) rotate(0 149.5166015625 11.5)"><text x="149.5166015625" y="0" font-family="Helvetica, Segoe UI Emoji" font-size="20px" fill="#1e1e1e" text-anchor="middle" style="white-space: pre;" direction="ltr" dominant-baseline="text-before-edge">RETRIEVE consumer_pronounce</text></g><g stroke-linecap="round" transform="translate(10 1150.2743459550175) rotate(0 180 39.99997820172996)"><path d="M20 0 C130.33 -2.14, 241.76 -0.97, 340 0 M20 0 C126.58 1.72, 234.15 1.86, 340 0 M340 0 C352.5 -0.86, 360.21 5.3, 360 20 M340 0 C352.1 1.45, 361.38 6.79, 360 20 M360 20 C361.32 34.31, 358.55 49.08, 360 60 M360 20 C360.97 32.39, 359.37 42.16, 360 60 M360 60 C358.91 74.31, 353.05 79.6, 340 80 M360 60 C359.93 75.47, 355.17 81.16, 340 80 M340 80 C262.59 80.27, 182.02 80.77, 20 80 M340 80 C218.67 77.52, 97.56 77.46, 20 80 M20 80 C5.59 81.17, -1.11 72.69, 0 60 M20 80 C8.85 81.42, -2.08 71.18, 0 60 M0 60 C0.61 51.74, -1.53 43.16, 0 20 M0 60 C1.09 45.47, 0.98 30.42, 0 20 M0 20 C0.15 8.62, 4.8 -1.51, 20 0 M0 20 C-2.26 5.47, 4.89 -1.57, 20 0" stroke="#1e1e1e" stroke-width="2" fill="none"></path></g><g transform="translate(17.06817626953091 1193.7029522608218) rotate(0 173.7890625 11.5)"><text x="173.7890625" y="0" font-family="Helvetica, Segoe UI Emoji" font-size="20px" fill="#1e1e1e" text-anchor="middle" style="white-space: pre;" direction="ltr" dominant-baseline="text-before-edge">GENERATE consumers_booking_code</text></g><g stroke-linecap="round" transform="translate(11.28582763671875 1273.9982951077832) rotate(0 180 39.99997820172996)"><path d="M20 0 C123.11 1.68, 229.6 1.64, 340 0 M20 0 C95.16 -0.73, 170.54 -0.72, 340 0 M340 0 C351.65 1.22, 359.51 6.26, 360 20 M340 0 C353.57 -0.42, 359.44 5.03, 360 20 M360 20 C360.45 29.53, 360.06 42.39, 360 60 M360 20 C359.08 36.7, 359.77 52.2, 360 60 M360 60 C361.85 72.08, 354.39 78.67, 340 80 M360 60 C357.81 72.7, 354.4 80.22, 340 80 M340 80 C273.2 81, 209.97 80.06, 20 80 M340 80 C247.1 81.73, 155.58 81.79, 20 80 M20 80 C7.18 80.39, 0.94 74.73, 0 60 M20 80 C6.65 79.53, 0.35 73.4, 0 60 M0 60 C-1.84 48.51, 0.02 40.53, 0 20 M0 60 C0.32 51.62, 0.61 42.22, 0 20 M0 20 C1.29 6.16, 6.8 0.35, 20 0 M0 20 C1.66 8.06, 7.18 1.46, 20 0" stroke="#1e1e1e" stroke-width="2" fill="none"></path></g><g stroke-linecap="round"><g transform="translate(187.57162039620562 1228.2840747883088) rotate(0 0 22.285723005022305)"><path d="M0.23 -0.36 C0.12 7.03, -0.33 37.23, -0.4 44.68 M-0.32 0.65 C-0.27 7.82, 0.68 36.41, 0.64 43.77" stroke="#1e1e1e" stroke-width="2" fill="none"></path></g></g><mask></mask><g stroke-linecap="round" transform="translate(491.00013078962013 1352.4270060452834) rotate(0 179.99999999999994 39.99997820172996)"><path d="M20 0 C89.2 1.46, 156.71 2.58, 340 0 M20 0 C95.33 1.3, 172.31 1.56, 340 0 M340 0 C351.44 1.47, 359.66 5.11, 360 20 M340 0 C355.6 2.27, 360.72 6.41, 360 20 M360 20 C360.32 32.04, 360.5 41.81, 360 60 M360 20 C360.18 32.58, 360.34 45.6, 360 60 M360 60 C358.77 75.06, 352.71 78.5, 340 80 M360 60 C357.77 73.75, 352.9 78.29, 340 80 M340 80 C267.53 80.53, 193.62 80.98, 20 80 M340 80 C252.58 80.82, 164.31 80.84, 20 80 M20 80 C6.89 81.96, 0.59 73.36, 0 60 M20 80 C5.43 80.81, -1.02 71.95, 0 60 M0 60 C1.24 48.22, 1.25 33.86, 0 20 M0 60 C0.25 46.69, 0.75 34.39, 0 20 M0 20 C0.8 6.64, 7.65 0.67, 20 0 M0 20 C-2.04 8.8, 8.23 -2.2, 20 0" stroke="#1e1e1e" stroke-width="2" fill="none"></path></g><g transform="translate(508.91028703962013 1380.9269842470133) rotate(0 162.08984375 11.5)"><text x="162.08984375" y="0" font-family="Helvetica, Segoe UI Emoji" font-size="20px" fill="#1e1e1e" text-anchor="middle" style="white-space: pre;" direction="ltr" dominant-baseline="text-before-edge">SAVE only CONSUMERS properties</text></g><g stroke-linecap="round" transform="translate(489.57155936104925 1481.7127726468464) rotate(0 180.00000000000006 39.99997820172996)"><path d="M20 0 C104.06 1.49, 189.79 2.19, 340 0 M20 0 C103.52 0.26, 185.73 0.67, 340 0 M340 0 C354.69 -1.91, 360.17 5.69, 360 20 M340 0 C351.39 -1.73, 357.85 6.34, 360 20 M360 20 C361.69 33.74, 361.59 52.21, 360 60 M360 20 C359.81 31.21, 358.95 42.79, 360 60 M360 60 C360.54 74.32, 353.61 79.69, 340 80 M360 60 C359.53 74.82, 353.95 82.28, 340 80 M340 80 C269.95 79.41, 200.17 77.81, 20 80 M340 80 C271.29 80.23, 202.13 80.15, 20 80 M20 80 C5.03 81.61, 1.38 71.53, 0 60 M20 80 C4.69 81.75, 0.82 74.37, 0 60 M0 60 C-1.98 51.2, -0.9 39.88, 0 20 M0 60 C0.2 46.86, 0.42 32.82, 0 20 M0 20 C-0.3 8.65, 4.86 1.89, 20 0 M0 20 C-0.47 8.11, 5.48 -1.59, 20 0" stroke="#1e1e1e" stroke-width="2" fill="none"></path></g><g transform="translate(513.5852312360493 1510.2127508485762) rotate(0 155.986328125 11.5)"><text x="155.986328125" y="0" font-family="Helvetica, Segoe UI Emoji" font-size="20px" fill="#1e1e1e" text-anchor="middle" style="white-space: pre;" direction="ltr" dominant-baseline="text-before-edge">SAVE only PROVIDERS properties</text></g><g stroke-linecap="round"><g transform="translate(665.8573521205361 1435.9985523273715) rotate(0 0 22.285723005022305)"><path d="M0.26 -0.22 C0.3 7.27, 0.22 37.07, 0.22 44.57 M-0.27 -0.81 C-0.28 6.81, -0.15 37.83, -0.1 45.26" stroke="#1e1e1e" stroke-width="2" fill="none"></path></g></g><mask></mask><g stroke-linecap="round" transform="translate(489.8572736467635 1609.9984869325606) rotate(0 180.00000000000006 39.99997820172996)"><path d="M20 0 C123.48 -0.67, 227.29 1.44, 340 0 M20 0 C87.33 -1.39, 153.87 -1.41, 340 0 M340 0 C353.17 -1.81, 361.53 5.93, 360 20 M340 0 C353.94 1.13, 359.38 6.61, 360 20 M360 20 C361.81 32.05, 362.32 42.9, 360 60 M360 20 C359.4 35.08, 359.87 51.6, 360 60 M360 60 C359.28 73.92, 353.58 80.7, 340 80 M360 60 C361.18 73.47, 353.12 78.35, 340 80 M340 80 C248.5 81.65, 157.72 80.88, 20 80 M340 80 C251.15 79.28, 162.6 79.3, 20 80 M20 80 C5.17 80.21, -1 75.07, 0 60 M20 80 C4.96 80.11, 0.78 71.33, 0 60 M0 60 C-1.2 50.7, -0.26 39.31, 0 20 M0 60 C-0.41 48.49, 0.04 36.81, 0 20 M0 20 C-0.18 8.34, 5.53 1.45, 20 0 M0 20 C1.63 6.47, 4.91 -0.98, 20 0" stroke="#1e1e1e" stroke-width="2" fill="none"></path></g><g transform="translate(529.0516095842635 1638.4984651342904) rotate(0 140.8056640625 11.5)"><text x="140.8056640625" y="0" font-family="Helvetica, Segoe UI Emoji" font-size="20px" fill="#1e1e1e" text-anchor="middle" style="white-space: pre;" direction="ltr" dominant-baseline="text-before-edge">SAVE only SERVICE properties</text></g><g stroke-linecap="round"><g transform="translate(666.1430664062503 1564.2842666130862) rotate(0 0 22.285723005022305)"><path d="M0.38 -0.5 C0.37 6.93, -0.44 37.44, -0.47 44.99 M-0.09 0.44 C0.11 7.68, 0.51 37, 0.52 44.24" stroke="#1e1e1e" stroke-width="2" fill="none"></path></g></g><mask></mask><g stroke-linecap="round"><g transform="translate(184.63922698499516 1082.2387103905644) rotate(0 188.5714721679688 -0.5714198521205844)"><path d="M0.34 -0.52 C63.07 -0.38, 313.86 -0.31, 376.85 -0.26 M-0.94 1.82 C61.57 1.74, 312.57 -1.27, 375.76 -1.92" stroke="#1e1e1e" stroke-width="2" fill="none"></path></g></g><mask></mask><g stroke-linecap="round"><g transform="translate(185.067850729415 1083.3817026826969) rotate(0 0.5713762555801623 29.714246477399456)"><path d="M-0.29 0.88 C0.04 11.03, 1.94 50.46, 2.34 60.37 M1.76 0.3 C2.01 10.17, 2.01 49.04, 2.01 58.75" stroke="#1e1e1e" stroke-width="2" fill="none"></path></g></g><mask></mask><g stroke-linecap="round"><g transform="translate(1184.0001133510043 1262.8460186670725) rotate(0 0.5714634486607792 64.57143511090965)"><path d="M0.37 -0.95 C0.47 20.74, 0.42 108.19, 0.37 129.73 M-0.9 1.17 C-0.4 22.53, 2.13 106.58, 2.68 127.92" stroke="#1e1e1e" stroke-width="2" fill="none"></path></g></g><mask></mask><g stroke-linecap="round"><g transform="translate(187.42871965680808 1354.2745682973737) rotate(0 -0.5714198521205276 21.714303152901834)"><path d="M-0.44 -0.15 C-0.61 7.05, -0.79 35.74, -0.85 43.01 M0.33 -0.7 C0.11 6.57, -0.91 36.02, -1.13 43.5" stroke="#1e1e1e" stroke-width="2" fill="none"></path></g></g><mask></mask><g stroke-linecap="round"><g transform="translate(184.0001569475446 1395.417451598155) rotate(0 154.2857796805245 -1.1428615025112094)"><path d="M0.77 -0.45 C52.2 -1.02, 256.58 -2.42, 307.89 -2.57 M-0.28 -1.73 C51.6 -2.2, 258.88 -0.93, 310.25 -1.18" stroke="#1e1e1e" stroke-width="2" fill="none"></path></g></g><mask></mask><g transform="translate(57.60018484933039 1159.9888758099296) rotate(0 132.1142578125 11.5)"><text x="132.1142578125" y="0" font-family="Helvetica, Segoe UI Emoji" font-size="20px" fill="#1e1e1e" text-anchor="middle" style="white-space: pre;" direction="ltr" dominant-baseline="text-before-edge">SAVE only booking properties</text></g><g transform="translate(23.89748709542414 1300.4888452923515) rotate(0 169.53125 11.5)"><text x="169.53125" y="0" font-family="Helvetica, Segoe UI Emoji" font-size="20px" fill="#1e1e1e" text-anchor="middle" style="white-space: pre;" direction="ltr" dominant-baseline="text-before-edge">RETRIEVE consumers_booking_code</text></g><g stroke-linecap="round"><g transform="translate(1182.8573608398435 1389.7031658838694) rotate(0 -166.28574916294633 -0.571441650390625)"><path d="M0.95 0.1 C-54.32 0.06, -277.09 -0.43, -332.52 -0.49 M-0.01 -0.89 C-55.35 -1.26, -278.13 -2.06, -333.44 -2.28" stroke="#1e1e1e" stroke-width="2" fill="none"></path></g></g><mask></mask><g stroke-linecap="round"><g transform="translate(679.0001482282366 927.4175082736585) rotate(0 0.5714198521204708 38.857127598353884)"><path d="M-0.34 0.93 C0.15 14.04, 1.9 65.67, 2.14 78.51 M1.68 0.38 C2.17 13.16, 1.94 63.63, 1.71 76.81" stroke="#1e1e1e" stroke-width="2" fill="none"></path></g><g transform="translate(679.0001482282366 927.4175082736585) rotate(0 0.5714198521204708 38.857127598353884)"><path d="M-8.28 48.52 C-4.44 56.75, -2.36 61.53, 1.71 76.81 M-8.28 48.52 C-4.97 58.29, -2.49 66.99, 1.71 76.81" stroke="#1e1e1e" stroke-width="2" fill="none"></path></g><g transform="translate(679.0001482282366 927.4175082736585) rotate(0 0.5714198521204708 38.857127598353884)"><path d="M12.24 48.72 C11.33 56.85, 8.66 61.58, 1.71 76.81 M12.24 48.72 C8.92 58.58, 4.78 67.22, 1.71 76.81" stroke="#1e1e1e" stroke-width="2" fill="none"></path></g></g><mask></mask><g stroke-linecap="round" transform="translate(489.7144339425223 1738.631741672096) rotate(0 179.99999999999994 39.99997820172996)"><path d="M20 0 C131.44 -1.7, 243.94 -0.91, 340 0 M20 0 C135.27 1.38, 250.54 1.67, 340 0 M340 0 C351.63 -0.09, 360.14 8.05, 360 20 M340 0 C355.59 1.24, 360.97 7.16, 360 20 M360 20 C358.46 30.55, 358.01 43.05, 360 60 M360 20 C359.99 31.73, 359.39 45.47, 360 60 M360 60 C359.4 72.51, 352.69 78.64, 340 80 M360 60 C359.17 73.07, 354.47 81.8, 340 80 M340 80 C236.2 81.68, 135.47 80.2, 20 80 M340 80 C215.48 78.35, 90.37 78.46, 20 80 M20 80 C7.18 81.69, 0.91 73.06, 0 60 M20 80 C8.96 81.79, -1.78 75.23, 0 60 M0 60 C1.89 47.91, 0.63 40.12, 0 20 M0 60 C-0.47 47.17, -0.24 33.11, 0 20 M0 20 C0.75 5.91, 5.64 1.16, 20 0 M0 20 C0.84 7.04, 8.63 0.59, 20 0" stroke="#1e1e1e" stroke-width="2" fill="none"></path></g><g transform="translate(584.3286917550223 1767.131719873826) rotate(0 85.3857421875 11.5)"><text x="85.3857421875" y="0" font-family="Helvetica, Segoe UI Emoji" font-size="20px" fill="#1e1e1e" text-anchor="middle" style="white-space: pre;" direction="ltr" dominant-baseline="text-before-edge">FORMAT date/time</text></g><g stroke-linecap="round" transform="translate(488.2858625139512 1867.917508273659) rotate(0 179.99999999999994 39.99997820172996)"><path d="M20 0 C127.03 -2.16, 231.23 -2, 340 0 M20 0 C94.93 0.46, 171.09 0.98, 340 0 M340 0 C355.29 1.08, 360.85 7.1, 360 20 M340 0 C352.88 -2.19, 359.88 5.33, 360 20 M360 20 C360 31.31, 360.63 41.04, 360 60 M360 20 C359.4 27.9, 359.39 35.95, 360 60 M360 60 C359.28 73.1, 354.32 81.57, 340 80 M360 60 C360.48 75.52, 354.13 78.1, 340 80 M340 80 C224.51 80.37, 105.42 79.48, 20 80 M340 80 C239.95 81.24, 139.86 80.56, 20 80 M20 80 C8.66 81.56, -1.54 74.98, 0 60 M20 80 C6.05 78.77, 2.04 75.26, 0 60 M0 60 C0.64 51.77, 0.11 40.26, 0 20 M0 60 C0.36 45.15, -0.54 31.64, 0 20 M0 20 C0.73 6.99, 8.38 0.52, 20 0 M0 20 C0.51 6.24, 5.99 -1.71, 20 0" stroke="#1e1e1e" stroke-width="2" fill="none"></path></g><g transform="translate(580.4733625139512 1896.4174864753888) rotate(0 87.8125 11.5)"><text x="87.8125" y="0" font-family="Helvetica, Segoe UI Emoji" font-size="20px" fill="#1e1e1e" text-anchor="middle" style="white-space: pre;" direction="ltr" dominant-baseline="text-before-edge">EMAIL to consumer</text></g><g stroke-linecap="round"><g transform="translate(664.5716552734381 1822.2032879541841) rotate(0 0 22.285723005022305)"><path d="M-0.01 -0.35 C0 7.13, 0.06 36.97, -0.02 44.45 M-0.68 0.66 C-0.74 8.26, -0.68 37.68, -0.46 45.09" stroke="#1e1e1e" stroke-width="2" fill="none"></path></g></g><mask></mask><g stroke-linecap="round" transform="translate(488.5715767996654 1996.2032225593732) rotate(0 179.99999999999994 39.999978201729846)"><path d="M20 0 C115.25 -1.1, 211.06 0.19, 340 0 M20 0 C138.5 -1.06, 256.28 -1.88, 340 0 M340 0 C353.23 -1.16, 359.33 5.06, 360 20 M340 0 C354.03 0.37, 360.75 7.76, 360 20 M360 20 C359.96 30.83, 358.8 42.21, 360 60 M360 20 C360.35 30.06, 360.06 39.51, 360 60 M360 60 C360.69 71.68, 354.63 81.1, 340 80 M360 60 C359.05 75.4, 355.47 78.21, 340 80 M340 80 C235.03 79.75, 130.43 80.03, 20 80 M340 80 C247.85 82.32, 156.6 81.37, 20 80 M20 80 C8.44 81.68, -1.15 73.74, 0 60 M20 80 C8.95 80.83, 1.69 73.55, 0 60 M0 60 C-0.24 49.45, -1.01 36.37, 0 20 M0 60 C0.71 45.94, 0.08 31.18, 0 20 M0 20 C-0.59 5.18, 4.87 1.87, 20 0 M0 20 C-1.61 5.66, 8.68 1.51, 20 0" stroke="#1e1e1e" stroke-width="2" fill="none"></path></g><g transform="translate(587.4241158621654 2024.703200761103) rotate(0 81.1474609375 11.5)"><text x="81.1474609375" y="0" font-family="Helvetica, Segoe UI Emoji" font-size="20px" fill="#1e1e1e" text-anchor="middle" style="white-space: pre;" direction="ltr" dominant-baseline="text-before-edge">SLACK messages</text></g><g stroke-linecap="round"><g transform="translate(664.8573695591523 1950.4890022398988) rotate(0 0 22.285723005022305)"><path d="M0.04 0.38 C0.21 7.86, 0.51 37.48, 0.54 44.87 M-0.6 0.1 C-0.42 7.43, 0.28 36.51, 0.39 44.06" stroke="#1e1e1e" stroke-width="2" fill="none"></path></g></g><mask></mask><g stroke-linecap="round"><g transform="translate(666.2632237769074 1690.7419311491976) rotate(0 0 22.285723005022305)"><path d="M0.09 0.47 C0.06 7.89, 0.17 37.37, 0.14 44.69 M-0.53 0.24 C-0.65 7.46, -0.22 36.34, -0.22 43.79" stroke="#1e1e1e" stroke-width="2" fill="none"></path></g></g><mask></mask><g stroke-linecap="round" transform="translate(487.8572910853794 2125.5092877803904) rotate(0 180.00000000000006 39.99997820173007)"><path d="M20 0 C129.06 1.2, 237.27 1.36, 340 0 M20 0 C90.58 -0.05, 159.87 0.42, 340 0 M340 0 C351.71 -1.36, 359.5 6.12, 360 20 M340 0 C353.66 -0.08, 361.01 5.63, 360 20 M360 20 C361.29 31.07, 361.51 44.06, 360 60 M360 20 C359.46 33.18, 358.96 47.56, 360 60 M360 60 C360.11 72.32, 355.32 79.06, 340 80 M360 60 C358.52 71.14, 353.76 82.14, 340 80 M340 80 C227.46 80.21, 114.13 79.53, 20 80 M340 80 C269.06 78.77, 199.69 78.68, 20 80 M20 80 C5.66 80.14, -0.04 73.56, 0 60 M20 80 C8.69 81.52, -1.93 73.39, 0 60 M0 60 C0.1 46.72, -2.18 32.33, 0 20 M0 60 C-0.2 47.49, 0.95 36.04, 0 20 M0 20 C0.91 4.7, 8.06 -0.04, 20 0 M0 20 C0.16 7.89, 7.58 1.1, 20 0" stroke="#1e1e1e" stroke-width="2" fill="none"></path></g><g transform="translate(551.1336582728794 2154.0092659821203) rotate(0 116.7236328125 11.5)"><text x="116.7236328125" y="0" font-family="Helvetica, Segoe UI Emoji" font-size="20px" fill="#1e1e1e" text-anchor="middle" style="white-space: pre;" direction="ltr" dominant-baseline="text-before-edge">Google CALENDAR setup</text></g><g stroke-linecap="round"><g transform="translate(664.1430838448663 2079.795067460916) rotate(0 0 22.28572300502242)"><path d="M0.15 -0.44 C0.14 6.91, 0.05 37.07, 0.07 44.56 M-0.44 0.52 C-0.52 8.2, -0.41 37.83, -0.33 45.25" stroke="#1e1e1e" stroke-width="2" fill="none"></path></g></g><mask></mask><g stroke-linecap="round"><g transform="translate(664.428702218192 2203.131728593133) rotate(0 0.00004359654008112557 21.71430315290172)"><path d="M0.02 -0.2 C0.02 7, -0.22 36.31, -0.2 43.57 M-0.64 -0.78 C-0.71 6.22, -0.81 35.22, -0.73 42.67" stroke="#1e1e1e" stroke-width="2" fill="none"></path></g></g><mask></mask><g stroke-linecap="round" transform="translate(609.5716116768972 2246.5603348989366) rotate(0 57.714276994977695 24.57140241350453)"><path d="M12.29 0 C44.37 -0.64, 71.24 0.04, 103.14 0 M12.29 0 C35.12 -0.34, 59.25 -0.04, 103.14 0 M103.14 0 C109.59 1.21, 115.12 5.38, 115.43 12.29 M103.14 0 C113.29 0.49, 117.64 6.3, 115.43 12.29 M115.43 12.29 C113.84 20.93, 115.97 28.89, 115.43 36.86 M115.43 12.29 C114.95 21.56, 116.47 29.94, 115.43 36.86 M115.43 36.86 C115.41 44.22, 111.79 49.14, 103.14 49.14 M115.43 36.86 C116.03 43.44, 112.78 48.6, 103.14 49.14 M103.14 49.14 C76.39 48.02, 44.72 48.9, 12.29 49.14 M103.14 49.14 C82.58 50, 63.68 49.72, 12.29 49.14 M12.29 49.14 C2.17 48.15, 0.52 45.52, 0 36.86 M12.29 49.14 C5.12 49.93, 1.82 46.82, 0 36.86 M0 36.86 C1.63 29.01, 1.08 23.92, 0 12.29 M0 36.86 C-0.71 29.69, -0.25 23.24, 0 12.29 M0 12.29 C0.59 3.77, 3.65 1.26, 12.29 0 M0 12.29 C-1.48 1.99, 3.7 2.07, 12.29 0" stroke="#1971c2" stroke-width="2" fill="none"></path></g><g transform="translate(646.1726074218749 2259.631737312441) rotate(0 21.11328125 11.5)"><text x="21.11328125" y="0" font-family="Helvetica, Segoe UI Emoji" font-size="20px" fill="#1971c2" text-anchor="middle" style="white-space: pre;" direction="ltr" dominant-baseline="text-before-edge">END</text></g><g transform="translate(492.38145906963064 10) rotate(0 180.5234375 16.099999999999994)"><text x="180.5234375" y="0" font-family="Helvetica, Segoe UI Emoji" font-size="28px" fill="#1971c2" text-anchor="middle" style="white-space: pre;" direction="ltr" dominant-baseline="text-before-edge">Automated workflow diagram</text></g></svg>